<svg width="18" height="18" viewBox="0 0 18 18" fill="none" xmlns="http://www.w3.org/2000/svg">
<path d="M8 8.58579V1C8 0.447715 8.44772 0 9 0C9.55228 0 10 0.447715 10 1V8.58579L12.2929 6.29289C12.6834 5.90237 13.3166 5.90237 13.7071 6.29289C14.0976 6.68342 14.0976 7.31658 13.7071 7.70711L9.70711 11.7071C9.52614 11.8881 9.27614 12 9 12C8.72386 12 8.47386 11.8881 8.29289 11.7071L4.29289 7.70711C3.90237 7.31658 3.90237 6.68342 4.29289 6.29289C4.68342 5.90237 5.31658 5.90237 5.70711 6.29289L8 8.58579Z" fill="#0062FF"/>
<path d="M1 16H17C17.5523 16 18 16.4477 18 17C18 17.5523 17.5523 18 17 18H1C0.447715 18 0 17.5523 0 17C0 16.4477 0.447715 16 1 16Z" fill="#0062FF"/>
</svg>
