<svg width="136" height="136" viewBox="0 0 136 136" fill="none" xmlns="http://www.w3.org/2000/svg">
<mask id="mask0_201_1760" style="mask-type:alpha" maskUnits="userSpaceOnUse" x="8" y="8" width="120" height="124">
<path fill-rule="evenodd" clip-rule="evenodd" d="M122.473 91.0005C131.557 69.8539 127.921 44.5371 111.203 26.934C88.752 3.2949 51.2118 2.51792 27.3543 25.1985C3.49676 47.8791 2.35626 85.4287 24.8069 109.068C38.7705 123.77 58.5714 129.629 77.2868 126.5H81.7114C83.2 126.5 84.6498 126.975 85.8502 127.855L87.7716 129.264C90.1688 131.022 93.1448 131.803 96.0966 131.449C100.931 130.869 105.008 127.575 106.591 122.969L108.096 118.592C108.993 115.984 110.938 113.869 113.462 112.758C118.702 110.453 122.203 105.4 122.52 99.6845L123.003 91.0005H122.473ZM84.1188 99.9018C70.3739 106.891 53.1614 104.41 42.0291 92.6888C28.4439 78.3845 29.0581 55.7349 43.401 42.0996C57.7439 28.4642 80.3841 29.0065 93.9693 43.3108C106.631 56.643 106.958 77.2246 95.3313 91.0005H87.0025L84.1188 99.9018Z" fill="#889BB7"/>
</mask>
<g mask="url(#mask0_201_1760)">
<path fill-rule="evenodd" clip-rule="evenodd" d="M122.473 91.0005C131.557 69.8539 127.921 44.5371 111.203 26.934C88.752 3.2949 51.2118 2.51792 27.3543 25.1985C3.49676 47.8791 2.35626 85.4287 24.8069 109.068C38.7705 123.77 58.5714 129.629 77.2868 126.5H81.7114C83.2 126.5 84.6498 126.975 85.8502 127.855L87.7716 129.264C90.1688 131.022 93.1448 131.803 96.0966 131.449C100.931 130.869 105.008 127.575 106.591 122.969L108.096 118.592C108.993 115.984 110.938 113.869 113.462 112.758C118.702 110.453 122.203 105.4 122.52 99.6845L123.003 91.0005H122.473ZM84.1188 99.9018C70.3739 106.891 53.1614 104.41 42.0291 92.6888C28.4439 78.3845 29.0581 55.7349 43.401 42.0996C57.7439 28.4642 80.3841 29.0065 93.9693 43.3108C106.631 56.643 106.958 77.2246 95.3313 91.0005H87.0025L84.1188 99.9018Z" fill="#889BB7"/>
<g filter="url(#filter0_f_201_1760)">
<path fill-rule="evenodd" clip-rule="evenodd" d="M78.1498 136.522C78.1498 139.045 78.5194 141.482 79.2074 143.782C57.2964 147.971 33.8767 141.344 17.4789 124.078C-8.258 96.9789 -6.95056 53.9329 20.3992 27.9324C47.7489 1.93181 90.7842 2.82251 116.521 29.9218C135.927 50.3546 139.957 79.8533 129.042 104.276C128.197 104.19 127.339 104.146 126.471 104.146C119.399 104.146 113.005 107.053 108.419 111.738C106.802 111.413 105.129 111.242 103.417 111.242C89.4621 111.242 78.1498 122.56 78.1498 136.522ZM81.4016 92.1655C89.8003 84.1811 90.16 70.9182 82.2049 62.5421C74.2499 54.1659 60.9925 53.8484 52.5938 61.8328C44.195 69.8172 43.8354 83.0801 51.7904 91.4562C59.7455 99.8324 73.0029 100.15 81.4016 92.1655Z" fill="url(#paint0_linear_201_1760)"/>
</g>
<g filter="url(#filter1_b_201_1760)">
<path fill-rule="evenodd" clip-rule="evenodd" d="M79.1498 127.522C79.1498 130.045 79.5194 132.482 80.2074 134.782C58.2964 138.971 34.8767 132.344 18.4789 115.078C-7.258 87.9789 -5.95056 44.9329 21.3992 18.9324C48.7489 -7.06819 91.7842 -6.17749 117.521 20.9218C136.927 41.3546 140.957 70.8533 130.042 95.2756C129.197 95.19 128.339 95.1462 127.471 95.1462C120.399 95.1462 114.005 98.0531 109.419 102.738C107.802 102.413 106.129 102.242 104.417 102.242C90.4621 102.242 79.1498 113.56 79.1498 127.522ZM82.4016 83.1655C90.8003 75.1811 91.16 61.9182 83.2049 53.5421C75.2499 45.1659 61.9925 44.8484 53.5938 52.8328C45.195 60.8172 44.8354 74.0801 52.7904 82.4562C60.7455 90.8324 74.0029 91.1499 82.4016 83.1655Z" fill="#889BB7"/>
</g>
</g>
<g filter="url(#filter2_b_201_1760)">
<path fill-rule="evenodd" clip-rule="evenodd" d="M79.1498 127.522C79.1498 130.045 79.5194 132.482 80.2074 134.782C58.2964 138.971 34.8767 132.344 18.4789 115.078C-7.258 87.9789 -5.95056 44.9329 21.3992 18.9324C48.7489 -7.06819 91.7842 -6.17749 117.521 20.9218C136.927 41.3546 140.957 70.8533 130.042 95.2756C129.197 95.19 128.339 95.1462 127.471 95.1462C120.399 95.1462 114.005 98.0531 109.419 102.738C107.802 102.413 106.129 102.242 104.417 102.242C90.4621 102.242 79.1498 113.56 79.1498 127.522ZM82.4016 83.1655C90.8003 75.1811 91.16 61.9182 83.2049 53.5421C75.2499 45.1659 61.9925 44.8484 53.5938 52.8328C45.195 60.8172 44.8354 74.0801 52.7904 82.4562C60.7455 90.8324 74.0029 91.1499 82.4016 83.1655Z" fill="url(#paint1_linear_201_1760)"/>
</g>
<g filter="url(#filter3_b_201_1760)">
<path d="M78.8998 127.522C78.8998 129.973 79.2451 132.343 79.8899 134.588C58.1362 138.655 34.929 132.036 18.6602 114.906C-6.98011 87.9084 -5.67993 45.0206 21.5714 19.1136C48.8227 -6.79341 91.6996 -5.90353 117.34 21.094C136.629 41.4042 140.671 70.7073 129.887 95.0092C129.092 94.9345 128.286 94.8962 127.471 94.8962C120.377 94.8962 113.96 97.7923 109.335 102.466C107.744 102.155 106.099 101.992 104.417 101.992C90.3239 101.992 78.8998 113.422 78.8998 127.522ZM82.5738 83.3467C91.0721 75.2677 91.4368 61.8467 83.3862 53.3699C75.3355 44.8931 61.9198 44.5725 53.4215 52.6516C44.9233 60.7306 44.5585 74.1516 52.6091 82.6284C60.6598 91.1052 74.0755 91.4258 82.5738 83.3467Z" stroke="black" stroke-opacity="0.05" stroke-width="0.5"/>
</g>
<rect width="9.27792" height="25.9867" rx="4.63896" transform="matrix(-0.912144 0.409871 -0.409533 -0.912295 118.926 56.749)" fill="#889BB7"/>
<rect x="-0.330419" y="-0.125606" width="8.77792" height="25.4867" rx="4.38896" transform="matrix(-0.912144 0.409871 -0.409533 -0.912295 118.243 56.6443)" stroke="black" stroke-opacity="0.05" stroke-width="0.5"/>
<path d="M91.3515 10.8588C93.6772 9.78208 96.4347 10.7949 97.5106 13.1209V13.1209C98.5865 15.447 97.5733 18.2056 95.2476 19.2824L80.0955 26.2977C77.7698 27.3744 75.0123 26.3617 73.9364 24.0356V24.0356C72.8605 21.7095 73.8737 18.9509 76.1993 17.8741L91.3515 10.8588Z" fill="#697FA1"/>
<rect x="19" y="38.874" width="9.23314" height="25.8528" rx="4.61657" transform="rotate(-58.5157 19 38.874)" fill="white"/>
<rect x="18.6562" y="38.9567" width="9.73314" height="26.3528" rx="4.86657" transform="rotate(-58.5157 18.6562 38.9567)" stroke="black" stroke-opacity="0.03" stroke-width="0.5"/>
<rect width="9.27789" height="25.9868" rx="4.63895" transform="matrix(0.915585 0.402125 -0.40179 0.915732 29.8066 78.7715)" fill="url(#paint2_linear_201_1760)"/>
<rect x="0.128449" y="0.329464" width="8.77789" height="25.4868" rx="4.38895" transform="matrix(0.915585 0.402125 -0.40179 0.915732 29.9499 78.7476)" stroke="black" stroke-opacity="0.05" stroke-width="0.5"/>
<defs>
<filter id="filter0_f_201_1760" x="-8" y="2" width="150" height="150" filterUnits="userSpaceOnUse" color-interpolation-filters="sRGB">
<feFlood flood-opacity="0" result="BackgroundImageFix"/>
<feBlend mode="normal" in="SourceGraphic" in2="BackgroundImageFix" result="shape"/>
<feGaussianBlur stdDeviation="3.5" result="effect1_foregroundBlur_201_1760"/>
</filter>
<filter id="filter1_b_201_1760" x="-20" y="-20" width="176" height="176" filterUnits="userSpaceOnUse" color-interpolation-filters="sRGB">
<feFlood flood-opacity="0" result="BackgroundImageFix"/>
<feGaussianBlur in="BackgroundImage" stdDeviation="10"/>
<feComposite in2="SourceAlpha" operator="in" result="effect1_backgroundBlur_201_1760"/>
<feBlend mode="normal" in="SourceGraphic" in2="effect1_backgroundBlur_201_1760" result="shape"/>
</filter>
<filter id="filter2_b_201_1760" x="-20" y="-20" width="176" height="176" filterUnits="userSpaceOnUse" color-interpolation-filters="sRGB">
<feFlood flood-opacity="0" result="BackgroundImageFix"/>
<feGaussianBlur in="BackgroundImage" stdDeviation="10"/>
<feComposite in2="SourceAlpha" operator="in" result="effect1_backgroundBlur_201_1760"/>
<feBlend mode="normal" in="SourceGraphic" in2="effect1_backgroundBlur_201_1760" result="shape"/>
</filter>
<filter id="filter3_b_201_1760" x="-20" y="-20" width="176" height="176" filterUnits="userSpaceOnUse" color-interpolation-filters="sRGB">
<feFlood flood-opacity="0" result="BackgroundImageFix"/>
<feGaussianBlur in="BackgroundImage" stdDeviation="10"/>
<feComposite in2="SourceAlpha" operator="in" result="effect1_backgroundBlur_201_1760"/>
<feBlend mode="normal" in="SourceGraphic" in2="effect1_backgroundBlur_201_1760" result="shape"/>
</filter>
<linearGradient id="paint0_linear_201_1760" x1="150" y1="93.5" x2="54" y2="131.5" gradientUnits="userSpaceOnUse">
<stop stop-color="#5E7597"/>
<stop offset="1" stop-color="#697FA1"/>
</linearGradient>
<linearGradient id="paint1_linear_201_1760" x1="68" y1="0" x2="68" y2="145" gradientUnits="userSpaceOnUse">
<stop stop-color="#E4E9F2"/>
<stop offset="1" stop-color="#E4E9F2" stop-opacity="0.35"/>
</linearGradient>
<linearGradient id="paint2_linear_201_1760" x1="0.315644" y1="-9.7174" x2="19.0268" y2="36.6669" gradientUnits="userSpaceOnUse">
<stop stop-color="#889BB7"/>
<stop offset="1" stop-color="#697FA1"/>
</linearGradient>
</defs>
</svg>
