<svg width="13" height="12" viewBox="0 0 13 12" fill="none" xmlns="http://www.w3.org/2000/svg">
<path d="M5.80801 9.94917C6.87295 9.94917 7.83707 9.51752 8.53496 8.81963L9.44394 9.72861C8.51342 10.6591 7.22793 11.2347 5.80801 11.2347C2.96816 11.2347 0.666016 8.93252 0.666016 6.09267C0.666016 3.25283 2.96816 0.950684 5.80801 0.950684C8.29153 0.950684 10.3638 2.71137 10.8448 5.05261L11.4923 4.10365C11.6923 3.81043 12.0922 3.73492 12.3855 3.935C12.6787 4.13508 12.7542 4.53498 12.5541 4.8282L11.0171 7.08074C10.817 7.37396 10.4171 7.44947 10.1239 7.24939L7.87139 5.71239C7.57817 5.51231 7.50266 5.11241 7.70274 4.81919C7.90282 4.52596 8.30272 4.45045 8.59594 4.65053L9.58868 5.32792C9.23389 3.56437 7.67606 2.23618 5.80801 2.23618C3.67812 2.23618 1.95151 3.96279 1.95151 6.09267C1.95151 8.22256 3.67812 9.94917 5.80801 9.94917Z" fill="#0062FF"/>
</svg>
